PathFileType	4	(X/Y/Z)	/Users/niels/Desktop/University/Third Semester/Perception and Action/Exam/Gymnastics Motion Tracking/Code for Gym Tracking/Analyzed Data/Webcam_Backflip/id1_4_trajectory_Sports2D/id1_4_trajectory_Sports2D_px_person00.trc
DataRate	CameraRate	NumFrames	NumMarkers	Units	OrigDataRate	OrigDataStartFrame	OrigNumFrames
29.71698113207547	29.71698113207547	7	22	m	29.71698113207547	39	106
Frame#	Time	Hip			RHip			RKnee			RAnkle			RBigToe			RSmallToe			RHeel			LHip			LKnee			LAnkle			LBigToe			LSmallToe			LHeel			Neck			Head			Nose			RShoulder			RElbow			RWrist			LShoulder			LElbow			LWrist		
		X1	Y1	Z1	X2	Y2	Z2	X3	Y3	Z3	X4	Y4	Z4	X5	Y5	Z5	X6	Y6	Z6	X7	Y7	Z7	X8	Y8	Z8	X9	Y9	Z9	X10	Y10	Z10	X11	Y11	Z11	X12	Y12	Z12	X13	Y13	Z13	X14	Y14	Z14	X15	Y15	Z15	X16	Y16	Z16	X17	Y17	Z17	X18	Y18	Z18	X19	Y19	Z19	X20	Y20	Z20	X21	Y21	Z21	X22	Y22	Z22
39	1.3123809523809522	0.5015893455908456	-0.7544366686188995	0.0	0.4964964985920596	-0.7603627053194812	0.0	0.5050397976109944	-0.6355956487222696	0.0	0.5712257089408744	-0.5441064164693167	0.0	0.5565397764702948	-0.4851246076918831	0.0	0.5822518515474151	-0.4859521827632843	0.0	0.5862376823175507	-0.5445962530589683	0.0	0.5141691460836769	-0.7431854609046257	0.0	0.6007679441885074	-0.6550939202294433	0.0	0.6910867756120895	-0.5920545955687114	0.0	0.6877762496395438	-0.5599337906037769	0.0	0.7038279142812467	-0.5731843355635229	0.0	0.6972795424446933	-0.5915600673901797	0.0	0.37755491289378684	-0.7308752161327186	0.0	0.3576404102485648	-0.6660315361265522	0.0	0.3925113442625785	-0.6923371944512581	0.0	0.36204013876408603	-0.7468190648003048	0.0	0.382434382758724	-0.7946464205457866	0.0	0.4414160994810851	-0.7972362891067558	0.0	0.3990867441330597	-0.7254569543365548	0.0	0.4321767108938702	-0.752703042792961	0.0	0.4892861159471519	-0.7363383473755789	0.0
40	1.346031746031746	0.5040843190139562	-0.7522201638191606	0.0	0.4995804509265985	-0.757742216522266	0.0	0.513560490814444	-0.6323425772653385	0.0	0.5705325717954536	-0.5409855248976374	0.0	0.553897374116339	-0.4811920344049869	0.0	0.5900219351233256	-0.4818696857358498	0.0	0.593331507138113	-0.5405127394187578	0.0	0.5162589450394669	-0.7393328668211339	0.0	0.5989277993652007	-0.6484543381601875	0.0	0.6886344234273515	-0.5826972751879024	0.0	0.6720688371954364	-0.5419634176208972	0.0	0.6865161021182593	-0.5548898908563367	0.0	0.6944978845343327	-0.5831385506426391	0.0	0.3790294972320945	-0.7295958074365532	0.0	0.359048859533099	-0.6660448848145756	0.0	0.39399522582414453	-0.6924515327993441	0.0	0.3644757500932751	-0.745344799186455	0.0	0.3889080017310581	-0.7944856414771445	0.0	0.4494701290611521	-0.788386486692852	0.0	0.40072803146765384	-0.7253332105279208	0.0	0.4361892131378756	-0.7551032238352583	0.0	0.49301056017637257	-0.736056377551293	0.0
41	1.3796825396825394	0.5075139342910453	-0.7539155038818447	0.0	0.503788869501892	-0.7597430120426455	0.0	0.523661942860525	-0.6342471271514187	0.0	0.5717083556656973	-0.5437081041219777	0.0	0.5542774240109356	-0.48339737227905194	0.0	0.6010149810442005	-0.48404639830241386	0.0	0.603384990754538	-0.5417287080364113	0.0	0.5186660612295098	-0.7394603968075905	0.0	0.5945683854919644	-0.6460090790071271	0.0	0.6821774652786655	-0.5758174120531964	0.0	0.6507510746842433	-0.5260524416421231	0.0	0.6631682856344682	-0.5382684540075663	0.0	0.6878623574395636	-0.5769662395446136	0.0	0.38104264793857434	-0.7322376898677266	0.0	0.36135042236387493	-0.6692566305496881	0.0	0.3959318208136543	-0.6962311773373645	0.0	0.3673122231893956	-0.7483953835224432	0.0	0.39596302747297657	-0.7978888620299762	0.0	0.45683151497056906	-0.7824510437381901	0.0	0.4029232165497157	-0.7290112771101356	0.0	0.4412478783132742	-0.7611257484053793	0.0	0.49957691938004806	-0.7389226148668365	0.0
42	1.413333333333333	0.5117814124182204	-0.7598396449432209	0.0	0.5085176843511745	-0.76623333175499	0.0	0.5308442505306349	-0.6408400579387753	0.0	0.5741901812313236	-0.5509571787897933	0.0	0.5568916276043498	-0.4904902017861267	0.0	0.6099101469952957	-0.49133111885628034	0.0	0.6120253955731388	-0.5471971394618003	0.0	0.5221156683162101	-0.7444250897250579	0.0	0.5883961692179009	-0.6482518178157272	0.0	0.6719686463218152	-0.5726592478465236	0.0	0.6291787480685375	-0.5154511884559424	0.0	0.6399612234008725	-0.5266378141519457	0.0	0.6782787477633566	-0.5739105803154021	0.0	0.38364882736663464	-0.7387844130380892	0.0	0.36455666640015655	-0.6756895122185504	0.0	0.39830154329635625	-0.7035038467106428	0.0	0.3704955519500983	-0.7559001284228197	0.0	0.40321663106735817	-0.8046381015200129	0.0	0.46290546659129733	-0.779828303537385	0.0	0.4057859400022224	-0.7364007049591484	0.0	0.44705901423510663	-0.7703784464752949	0.0	0.5090445413228132	-0.7431885051319234	0.0
43	1.4469841269841268	0.5166283432127986	-0.7699752304669131	0.0	0.5132878200370113	-0.7767033187249284	0.0	0.5310660140261011	-0.6514948029586212	0.0	0.5776543056062265	-0.5615365058596647	0.0	0.5609996902396851	-0.5013436344547666	0.0	0.6123237879461976	-0.5026524990180089	0.0	0.6154148059930941	-0.5562300739754472	0.0	0.5269844087951627	-0.7546811968688708	0.0	0.5808687847805126	-0.6554228074973957	0.0	0.6585364842507039	-0.5744531905031323	0.0	0.6127144279236608	-0.5125998140043215	0.0	0.6228520745025569	-0.522543728835969	0.0	0.6669158633946081	-0.5749018997198988	0.0	0.38671215246755924	-0.7488916395680653	0.0	0.3686063275988108	-0.6851014890299405	0.0	0.40119322242168265	-0.7138983227173736	0.0	0.37378864739423356	-0.7673226037551444	0.0	0.4102104363183101	-0.8143945491976102	0.0	0.46749688545960055	-0.7807038769411694	0.0	0.40919056879913324	-0.7470182246358918	0.0	0.4531715908545172	-0.7819452536270738	0.0	0.5206075984164591	-0.7473987590697481	0.0
44	1.4806349206349205	0.5217705110929967	-0.7837170171954123	0.0	0.5180651107027805	-0.7902982581111198	0.0	0.5246447610515814	-0.6656010482883401	0.0	0.582036823620967	-0.5747654595095226	0.0	0.5659059882974404	-0.5150885295538863	0.0	0.6085249497423848	-0.5170724983754378	0.0	0.6137603003432969	-0.5685358912984192	0.0	0.5329869146186523	-0.7696927488644694	0.0	0.5722043172574474	-0.6672554474946962	0.0	0.642907930422163	-0.5816481483475832	0.0	0.602461077146165	-0.5177146235173762	0.0	0.6125807540223707	-0.526225901097181	0.0	0.6549111131181676	-0.5804411206798739	0.0	0.3900775275937307	-0.7616934022678647	0.0	0.3733618147149483	-0.6967871097413727	0.0	0.40469573196635716	-0.7267267586856301	0.0	0.3769858033162127	-0.7816648657746477	0.0	0.4165217993449868	-0.8266493250924796	0.0	0.4707816336741235	-0.7850081250787345	0.0	0.4129636099238019	-0.7598957677558774	0.0	0.45926896603460415	-0.7942725435997521	0.0	0.5326902809179082	-0.7511010947934469	0.0
45	1.514285714285714	0.5268993771218005	-0.7999568652727569	0.0	0.522990947284389	-0.8059483051493262	0.0	0.5159780212991395	-0.682443389243699	0.0	0.5871922075858684	-0.5903097632923453	0.0	0.5711225134025538	-0.5309486490027847	0.0	0.6025818707177294	-0.5336609379596384	0.0	0.6106928226720452	-0.5837929412501466	0.0	0.5392664009667197	-0.7879300933108309	0.0	0.5626663024814059	-0.6828720788131734	0.0	0.62704866148659	-0.593733492958312	0.0	0.5959997224145281	-0.529121539106003	0.0	0.6056792872005916	-0.5360409009722223	0.0	0.6434992715847943	-0.5904473345011508	0.0	0.3936852185268918	-0.7757368820400491	0.0	0.378660719708769	-0.709558992249075	0.0	0.4088237016001604	-0.7408600463146084	0.0	0.380041614377069	-0.7973943594089636	0.0	0.42185516934317235	-0.8406188402615248	0.0	0.4731688169753994	-0.7923683797402844	0.0	0.4171184022765392	-0.7736501313199141	0.0	0.4655607585040273	-0.8053431941567538	0.0	0.5432305351719111	-0.7547707178106493	0.0
